<svg width="20" height="20" viewBox="0 0 20 20" fill="none" xmlns="http://www.w3.org/2000/svg">
<path d="M7 13L13 7" stroke="#D9C8AD" stroke-width="1.5" stroke-linecap="round" stroke-linejoin="round"/>
<path d="M7.25 7C7.20055 7 7.15222 7.01466 7.11111 7.04213C7.07 7.0696 7.03795 7.10865 7.01903 7.15433C7.00011 7.20001 6.99516 7.25028 7.0048 7.29877C7.01445 7.34727 7.03826 7.39181 7.07322 7.42678C7.10819 7.46174 7.15273 7.48555 7.20123 7.4952C7.24972 7.50484 7.29999 7.49989 7.34567 7.48097C7.39135 7.46205 7.4304 7.43 7.45787 7.38889C7.48534 7.34778 7.5 7.29945 7.5 7.25C7.5 7.1837 7.47366 7.12011 7.42678 7.07322C7.37989 7.02634 7.3163 7 7.25 7Z" stroke="#D9C8AD" stroke-width="1.5" stroke-linecap="round" stroke-linejoin="round"/>
<path d="M12.75 12.5C12.7006 12.5 12.6522 12.5147 12.6111 12.5421C12.57 12.5696 12.538 12.6086 12.519 12.6543C12.5001 12.7 12.4952 12.7503 12.5048 12.7988C12.5144 12.8473 12.5383 12.8918 12.5732 12.9268C12.6082 12.9617 12.6527 12.9856 12.7012 12.9952C12.7497 13.0048 12.8 12.9999 12.8457 12.981C12.8914 12.962 12.9304 12.93 12.9579 12.8889C12.9853 12.8478 13 12.7994 13 12.75C13 12.6837 12.9737 12.6201 12.9268 12.5732C12.8799 12.5263 12.8163 12.5 12.75 12.5Z" stroke="#D9C8AD" stroke-width="1.5" stroke-linecap="round" stroke-linejoin="round"/>
<path d="M10 19C8.22 19 6.47991 18.4722 4.99987 17.4832C3.51983 16.4943 2.36628 15.0887 1.68509 13.4442C1.0039 11.7996 0.82567 9.99 1.17294 8.2442C1.5202 6.49836 2.37737 4.89472 3.63604 3.63604C4.89472 2.37737 6.49836 1.5202 8.2442 1.17294C9.99 0.825669 11.7996 1.0039 13.4442 1.68509C15.0887 2.36628 16.4943 3.51983 17.4832 4.99987C18.4722 6.47991 19 8.22 19 10C19 12.387 18.0518 14.6761 16.364 16.364C14.6761 18.0518 12.387 19 10 19Z" stroke="#D9C8AD" stroke-width="1.5" stroke-linecap="round" stroke-linejoin="round"/>
</svg>
