<svg width="19" height="21" viewBox="0 0 19 21" fill="none" xmlns="http://www.w3.org/2000/svg">
<path d="M7 1H11" stroke="#D9C8AD" stroke-width="1.5" stroke-linecap="round" stroke-linejoin="round"/>
<path d="M9 20C13.4183 20 17 16.4183 17 12C17 7.58172 13.4183 4 9 4C4.58172 4 1 7.58172 1 12C1 16.4183 4.58172 20 9 20Z" stroke="#D9C8AD" stroke-width="1.5" stroke-linecap="round" stroke-linejoin="round"/>
<path d="M9 11.5C8.90111 11.5 8.80444 11.5293 8.72221 11.5843C8.63999 11.6392 8.5759 11.7173 8.53806 11.8087C8.50022 11.9 8.49031 12.0006 8.50961 12.0975C8.5289 12.1945 8.57652 12.2836 8.64645 12.3536C8.71637 12.4235 8.80546 12.4711 8.90245 12.4904C8.99945 12.5097 9.09998 12.4998 9.19134 12.4619C9.2827 12.4241 9.36079 12.36 9.41574 12.2778C9.47068 12.1956 9.5 12.0989 9.5 12C9.5 11.8674 9.44732 11.7402 9.35355 11.6464C9.25979 11.5527 9.13261 11.5 9 11.5Z" stroke="#D9C8AD" stroke-width="1.5" stroke-linecap="round" stroke-linejoin="round"/>
<path d="M12.54 15.54C11.8407 16.2411 10.949 16.7187 9.9779 16.9124C9.00682 17.106 8.00009 17.007 7.08536 16.6278C6.17063 16.2487 5.38908 15.6064 4.83979 14.7825C4.29051 13.9586 3.99822 12.9902 3.99999 12C4.00468 11.6947 4.03478 11.3903 4.08999 11.09" stroke="#D9C8AD" stroke-width="1.5" stroke-linecap="round" stroke-linejoin="round"/>
<path d="M5.46001 8.46002L8.65001 11.65" stroke="#D9C8AD" stroke-width="1.5" stroke-linecap="round" stroke-linejoin="round"/>
<path d="M17 4L14.66 6.34" stroke="#D9C8AD" stroke-width="1.5" stroke-linecap="round" stroke-linejoin="round"/>
<path d="M16 3L18 5" stroke="#D9C8AD" stroke-width="1.5" stroke-linecap="round" stroke-linejoin="round"/>
</svg>
