<svg width="20" height="22" viewBox="0 0 20 22" fill="none" xmlns="http://www.w3.org/2000/svg">
<path fill-rule="evenodd" clip-rule="evenodd" d="M18.93 15V7C18.9296 6.64928 18.8371 6.30481 18.6615 6.00116C18.486 5.69752 18.2337 5.44536 17.93 5.27L11 1.27C10.696 1.09446 10.3511 1.00205 10 1.00205C9.64893 1.00205 9.30405 1.09446 9.00001 1.27L2.07001 5.27C1.76627 5.44536 1.51399 5.69752 1.33847 6.00116C1.16295 6.30481 1.07037 6.64928 1.07001 7V15C1.07037 15.3507 1.16295 15.6952 1.33847 15.9988C1.51399 16.3025 1.76627 16.5546 2.07001 16.73L9.00001 20.73C9.30405 20.9055 9.64893 20.998 10 20.998C10.3511 20.998 10.696 20.9055 11 20.73L17.93 16.73C18.2337 16.5546 18.486 16.3025 18.6615 15.9988C18.8371 15.6952 18.9296 15.3507 18.93 15Z" stroke="#D9C8AD" stroke-width="1.5" stroke-linecap="round" stroke-linejoin="round"/>
<path d="M4.17001 11.63L7.17001 13.37" stroke="#D9C8AD" stroke-width="1.5" stroke-linecap="round" stroke-linejoin="round"/>
<path d="M1.34001 6L10 11L18.66 6" stroke="#D9C8AD" stroke-width="1.5" stroke-linecap="round" stroke-linejoin="round"/>
<path d="M10 21V11" stroke="#D9C8AD" stroke-width="1.5" stroke-linecap="round" stroke-linejoin="round"/>
<path d="M5.67001 8.5L14.6 3.35" stroke="#D9C8AD" stroke-width="1.5" stroke-linecap="round" stroke-linejoin="round"/>
</svg>
