<svg width="22" height="22" viewBox="0 0 22 22" fill="none" xmlns="http://www.w3.org/2000/svg">
<path d="M7 15.97L8.99 17.97L7 19.96" stroke="#D9C8AD" stroke-width="1.5" stroke-linecap="round" stroke-linejoin="round"/>
<path d="M2 14V16C2 16.5304 2.21071 17.0391 2.58579 17.4142C2.96086 17.7893 3.46957 18 4 18H9" stroke="#D9C8AD" stroke-width="1.5" stroke-linecap="round" stroke-linejoin="round"/>
<path d="M20 8V6C20 5.46957 19.7893 4.96086 19.4142 4.58579C19.0391 4.21071 18.5304 4 18 4H13" stroke="#D9C8AD" stroke-width="1.5" stroke-linecap="round" stroke-linejoin="round"/>
<path d="M15.01 5.99L13.01 3.99L15.01 2" stroke="#D9C8AD" stroke-width="1.5" stroke-linecap="round" stroke-linejoin="round"/>
<path fill-rule="evenodd" clip-rule="evenodd" d="M10 7.93V4.09C9.9992 3.88716 9.94522 3.68807 9.84344 3.5126C9.74167 3.33713 9.59567 3.19142 9.42 3.09L6.08 1.16C5.90214 1.05731 5.70038 1.00325 5.495 1.00325C5.28962 1.00325 5.08786 1.05731 4.91 1.16L1.58 3.08C1.40433 3.18142 1.25833 3.32713 1.15655 3.5026C1.05478 3.67807 1.0008 3.87716 1 4.08V7.93C1.0008 8.13284 1.05478 8.33193 1.15655 8.5074C1.25833 8.68287 1.40433 8.82858 1.58 8.93L4.91 10.85C5.08786 10.9527 5.28962 11.0068 5.495 11.0068C5.70038 11.0068 5.90214 10.9527 6.08 10.85L9.41 8.93C9.58753 8.82985 9.73554 8.68469 9.83912 8.50913C9.9427 8.33357 9.99819 8.13383 10 7.93V7.93Z" stroke="#D9C8AD" stroke-width="1.53" stroke-linecap="round" stroke-linejoin="round"/>
<path d="M1.16 3.5L5.49 6.01L9.83 3.5" stroke="#D9C8AD" stroke-width="1.53" stroke-linecap="round" stroke-linejoin="round"/>
<path d="M5.49001 6.00999V11.02" stroke="#D9C8AD" stroke-width="1.53" stroke-linecap="round" stroke-linejoin="round"/>
<path fill-rule="evenodd" clip-rule="evenodd" d="M21 17.91V14.07C20.9972 13.8664 20.9413 13.667 20.8378 13.4917C20.7343 13.3163 20.5869 13.1709 20.41 13.07L17.08 11.15C16.904 11.0472 16.7038 10.993 16.5 10.993C16.2962 10.993 16.096 11.0472 15.92 11.15L12.59 13.07C12.4143 13.1714 12.2683 13.3171 12.1665 13.4926C12.0648 13.6681 12.0108 13.8672 12.01 14.07V17.91C12.0108 18.1128 12.0648 18.3119 12.1665 18.4874C12.2683 18.6629 12.4143 18.8086 12.59 18.91L15.92 20.83C16.096 20.9328 16.2962 20.987 16.5 20.987C16.7038 20.987 16.904 20.9328 17.08 20.83L20.41 18.91C20.5869 18.8091 20.7343 18.6637 20.8378 18.4884C20.9413 18.313 20.9972 18.1136 21 17.91V17.91Z" stroke="#D9C8AD" stroke-width="1.53" stroke-linecap="round" stroke-linejoin="round"/>
<path d="M12.14 13.49L16.48 15.99L20.82 13.49" stroke="#D9C8AD" stroke-width="1.53" stroke-linecap="round" stroke-linejoin="round"/>
<path d="M16.48 15.99V21" stroke="#D9C8AD" stroke-width="1.53" stroke-linecap="round" stroke-linejoin="round"/>
</svg>
