<svg width="24" height="24" viewBox="0 0 24 24" fill="none" xmlns="http://www.w3.org/2000/svg">
<path d="M9 15L15 9" stroke="#D9C8AD" stroke-width="1.5" stroke-linecap="round" stroke-linejoin="round"/>
<path d="M9.25 9C9.20055 9 9.15222 9.01466 9.11111 9.04213C9.07 9.0696 9.03795 9.10865 9.01903 9.15433C9.00011 9.20001 8.99516 9.25028 9.0048 9.29877C9.01445 9.34727 9.03826 9.39181 9.07322 9.42678C9.10819 9.46174 9.15273 9.48555 9.20123 9.4952C9.24972 9.50484 9.29999 9.49989 9.34567 9.48097C9.39135 9.46205 9.4304 9.43 9.45787 9.38889C9.48534 9.34778 9.5 9.29945 9.5 9.25C9.5 9.1837 9.47366 9.12011 9.42678 9.07322C9.37989 9.02634 9.3163 9 9.25 9Z" stroke="#D9C8AD" stroke-width="1.5" stroke-linecap="round" stroke-linejoin="round"/>
<path d="M14.75 14.5C14.7006 14.5 14.6522 14.5147 14.6111 14.5421C14.57 14.5696 14.538 14.6086 14.519 14.6543C14.5001 14.7 14.4952 14.7503 14.5048 14.7988C14.5144 14.8473 14.5383 14.8918 14.5732 14.9268C14.6082 14.9617 14.6527 14.9856 14.7012 14.9952C14.7497 15.0048 14.8 14.9999 14.8457 14.981C14.8914 14.962 14.9304 14.93 14.9579 14.8889C14.9853 14.8478 15 14.7994 15 14.75C15 14.6837 14.9737 14.6201 14.9268 14.5732C14.8799 14.5263 14.8163 14.5 14.75 14.5Z" stroke="#D9C8AD" stroke-width="1.5" stroke-linecap="round" stroke-linejoin="round"/>
<path d="M12 21C10.22 21 8.47991 20.4722 6.99987 19.4832C5.51983 18.4943 4.36628 17.0887 3.68509 15.4442C3.0039 13.7996 2.82567 11.99 3.17294 10.2442C3.5202 8.49836 4.37737 6.89472 5.63604 5.63604C6.89472 4.37737 8.49836 3.5202 10.2442 3.17294C11.99 2.82567 13.7996 3.0039 15.4442 3.68509C17.0887 4.36628 18.4943 5.51983 19.4832 6.99987C20.4722 8.47991 21 10.22 21 12C21 14.387 20.0518 16.6761 18.364 18.364C16.6761 20.0518 14.387 21 12 21" stroke="#D9C8AD" stroke-width="1.5" stroke-linecap="round" stroke-linejoin="round"/>
</svg>
