<svg width="20" height="21" viewBox="0 0 20 21" fill="none" xmlns="http://www.w3.org/2000/svg">
<path d="M1 6.91003H17C17.5304 6.91003 18.0391 7.12074 18.4142 7.49582C18.7893 7.87089 19 8.3796 19 8.91003V18C19 18.5305 18.7893 19.0392 18.4142 19.4142C18.0391 19.7893 17.5304 20 17 20H3C2.46957 20 1.96086 19.7893 1.58579 19.4142C1.21071 19.0392 1 18.5305 1 18V7.29003C0.999946 6.88427 1.12331 6.48809 1.35372 6.15409C1.58412 5.82009 1.91067 5.56407 2.29 5.42003L12.65 1.51003C12.8015 1.45341 12.9645 1.4344 13.125 1.45462C13.2855 1.47484 13.4387 1.53369 13.5714 1.62612C13.7042 1.71855 13.8125 1.8418 13.8872 1.98531C13.9618 2.12881 14.0005 2.28828 14 2.45003V6.91003" stroke="#D9C8AD" stroke-width="1.5" stroke-linecap="round" stroke-linejoin="round"/>
<path d="M14 13.1201C13.9506 13.12 13.9016 13.1299 13.8561 13.1491C13.8105 13.1684 13.7693 13.1965 13.7348 13.2319C13.7003 13.2674 13.6733 13.3093 13.6553 13.3554C13.6373 13.4014 13.6287 13.4506 13.63 13.5001C13.6286 13.549 13.6373 13.5978 13.6554 13.6433C13.6735 13.6888 13.7007 13.7301 13.7353 13.7648C13.77 13.7994 13.8113 13.8266 13.8568 13.8447C13.9023 13.8628 13.9511 13.8714 14 13.8701C14.0494 13.8714 14.0986 13.8628 14.1447 13.8448C14.1907 13.8268 14.2327 13.7998 14.2681 13.7653C14.3036 13.7308 14.3317 13.6896 14.3509 13.644C14.3702 13.5984 14.38 13.5495 14.38 13.5001C14.38 13.4502 14.3702 13.4007 14.3511 13.3546C14.332 13.3085 14.304 13.2666 14.2687 13.2314C14.2334 13.1961 14.1915 13.1681 14.1454 13.149C14.0993 13.1299 14.0499 13.1201 14 13.1201" stroke="#D9C8AD" stroke-width="1.5" stroke-linecap="round" stroke-linejoin="round"/>
</svg>
