<svg width="22" height="16" viewBox="0 0 22 16" fill="none" xmlns="http://www.w3.org/2000/svg">
<path d="M21 11.24V14C21 14.2652 20.8947 14.5196 20.7071 14.7071C20.5196 14.8946 20.2652 15 20 15H2.00002C1.7348 15 1.48045 14.8946 1.29291 14.7071C1.10538 14.5196 1.00002 14.2652 1.00002 14V11.24C0.999279 11.168 1.01851 11.0971 1.05558 11.0353C1.09265 10.9736 1.1461 10.9232 1.21002 10.89V10.89C1.74901 10.6241 2.20254 10.2123 2.51899 9.7014C2.83544 9.19048 3.00211 8.60098 3.00002 8V8C3.00211 7.39902 2.83544 6.80952 2.51899 6.2986C2.20254 5.78768 1.74901 5.37585 1.21002 5.11V5.11C1.1461 5.07675 1.09265 5.02645 1.05558 4.96467C1.01851 4.90288 0.999279 4.83204 1.00002 4.76V2C1.00002 1.73478 1.10538 1.48043 1.29291 1.29289C1.48045 1.10536 1.7348 1 2.00002 1H20C20.2652 1 20.5196 1.10536 20.7071 1.29289C20.8947 1.48043 21 1.73478 21 2V4.76C21.0008 4.83204 20.9815 4.90288 20.9445 4.96467C20.9074 5.02645 20.8539 5.07675 20.79 5.11V5.11C20.251 5.37585 19.7975 5.78768 19.4811 6.2986C19.1646 6.80952 18.9979 7.39902 19 8V8C18.9979 8.60098 19.1646 9.19048 19.4811 9.7014C19.7975 10.2123 20.251 10.6241 20.79 10.89C20.8539 10.9232 20.9074 10.9736 20.9445 11.0353C20.9815 11.0971 21.0008 11.168 21 11.24V11.24Z" stroke="#D9C8AD" stroke-width="1.5" stroke-linecap="round" stroke-linejoin="round"/>
<path d="M8.42999 10.57L13.43 5.57001" stroke="#D9C8AD" stroke-width="1.5" stroke-linecap="round" stroke-linejoin="round"/>
<path d="M13.5 10.25C13.4506 10.25 13.4022 10.2647 13.3611 10.2921C13.32 10.3196 13.288 10.3586 13.269 10.4043C13.2501 10.45 13.2452 10.5003 13.2548 10.5488C13.2644 10.5973 13.2883 10.6418 13.3232 10.6768C13.3582 10.7117 13.4027 10.7356 13.4512 10.7452C13.4997 10.7548 13.55 10.7499 13.5957 10.731C13.6414 10.712 13.6804 10.68 13.7079 10.6389C13.7353 10.5978 13.75 10.5494 13.75 10.5C13.75 10.4337 13.7237 10.3701 13.6768 10.3232C13.6299 10.2763 13.5663 10.25 13.5 10.25Z" stroke="#D9C8AD" stroke-width="1.5" stroke-linecap="round" stroke-linejoin="round"/>
<path d="M8.5 5.25C8.45055 5.25 8.40222 5.26466 8.36111 5.29213C8.32 5.3196 8.28795 5.35865 8.26903 5.40433C8.25011 5.45001 8.24516 5.50028 8.2548 5.54877C8.26445 5.59727 8.28826 5.64181 8.32322 5.67678C8.35819 5.71174 8.40273 5.73555 8.45123 5.7452C8.49972 5.75484 8.54999 5.74989 8.59567 5.73097C8.64135 5.71205 8.6804 5.68 8.70787 5.63889C8.73534 5.59778 8.75 5.54945 8.75 5.5C8.75 5.4337 8.72366 5.37011 8.67678 5.32322C8.62989 5.27634 8.5663 5.25 8.5 5.25Z" stroke="#D9C8AD" stroke-width="1.5" stroke-linecap="round" stroke-linejoin="round"/>
</svg>
