<svg width="22" height="20" viewBox="0 0 22 20" fill="none" xmlns="http://www.w3.org/2000/svg">
<path d="M4 14H6" stroke="#D9C8AD" stroke-width="1.5" stroke-linecap="round" stroke-linejoin="round"/>
<path d="M12 17H3.00001C2.46958 17 1.96087 16.7893 1.5858 16.4142C1.21072 16.0391 1.00001 15.5304 1.00001 15V5.57C0.999176 5.29854 1.05361 5.02975 1.16001 4.78L2.26001 2.21C2.41464 1.85038 2.6714 1.54403 2.99847 1.32895C3.32555 1.11386 3.70855 0.999486 4.10001 1H13.9C14.2915 0.999486 14.6745 1.11386 15.0015 1.32895C15.3286 1.54403 15.5854 1.85038 15.74 2.21L16.84 4.78C16.9464 5.02975 17.0008 5.29854 17 5.57V9.1" stroke="#D9C8AD" stroke-width="1.5" stroke-linecap="round" stroke-linejoin="round"/>
<path d="M9 1V5.44" stroke="#D9C8AD" stroke-width="1.5" stroke-linecap="round" stroke-linejoin="round"/>
<path d="M16.99 5.44H1" stroke="#D9C8AD" stroke-width="1.5" stroke-linecap="round" stroke-linejoin="round"/>
<path d="M16 19C18.7614 19 21 16.7614 21 14C21 11.2386 18.7614 9 16 9C13.2386 9 11 11.2386 11 14C11 16.7614 13.2386 19 16 19Z" stroke="#D9C8AD" stroke-width="1.5" stroke-linecap="round" stroke-linejoin="round"/>
<path d="M18.22 12.89L15.44 15.67L13.78 14" stroke="#D9C8AD" stroke-width="1.5" stroke-linecap="round" stroke-linejoin="round"/>
</svg>
