<svg width="21" height="21" viewBox="0 0 21 21" fill="none" xmlns="http://www.w3.org/2000/svg">
<path d="M4 12H2C1.44772 12 1 12.4477 1 13V19C1 19.5523 1.44772 20 2 20H4C4.55228 20 5 19.5523 5 19V13C5 12.4477 4.55228 12 4 12Z" stroke="#D9C8AD" stroke-width="1.5" stroke-linecap="round" stroke-linejoin="round"/>
<path d="M11 15.9999H13.33C13.7627 15.9999 14.1838 15.8596 14.53 15.5999L17 13.7899C17.2936 13.5666 17.6584 13.4577 18.0264 13.4834C18.3943 13.5092 18.7404 13.6679 19 13.9299V13.9299C19.1409 14.0702 19.2527 14.237 19.329 14.4206C19.4053 14.6042 19.4445 14.8011 19.4445 14.9999C19.4445 15.1988 19.4053 15.3957 19.329 15.5793C19.2527 15.7629 19.1409 15.9296 19 16.0699L16.93 18.1399C16.3707 18.7016 15.6572 19.0845 14.88 19.2399L11.95 19.8199C11.3745 19.955 10.7755 19.955 10.2 19.8199L7.55 19.1599C7.22305 19.078 6.88706 19.0377 6.55 19.0399H5" stroke="#D9C8AD" stroke-width="1.5" stroke-linecap="round" stroke-linejoin="round"/>
<path d="M11 16H12.49C12.8897 15.9974 13.2722 15.8375 13.5548 15.5549C13.8374 15.2722 13.9974 14.8897 14 14.49V14.18C13.999 13.842 13.8855 13.514 13.6772 13.2477C13.4689 12.9815 13.1778 12.7923 12.85 12.71L10.56 12.14C10.187 12.048 9.80423 12.001 9.42 12V12C8.49383 11.9974 7.58814 12.2726 6.82 12.79L5 14" stroke="#D9C8AD" stroke-width="1.5" stroke-linecap="round" stroke-linejoin="round"/>
<path d="M13.16 8.99995C14.7285 8.99995 16 7.72843 16 6.15995C16 4.59146 14.7285 3.31995 13.16 3.31995C11.5915 3.31995 10.32 4.59146 10.32 6.15995C10.32 7.72843 11.5915 8.99995 13.16 8.99995Z" stroke="#D9C8AD" stroke-width="1.5" stroke-linecap="round" stroke-linejoin="round"/>
<path d="M12.63 3.38C12.5386 2.79234 12.2618 2.24927 11.84 1.83C11.4941 1.48217 11.064 1.22986 10.5916 1.09765C10.1192 0.965437 9.62067 0.957839 9.14447 1.07559C8.66827 1.19335 8.23069 1.43244 7.87436 1.76957C7.51803 2.1067 7.2551 2.53039 7.11118 2.99934C6.96726 3.4683 6.94727 3.96653 7.05314 4.44551C7.15902 4.92449 7.38715 5.36788 7.71532 5.73249C8.04349 6.09709 8.4605 6.37048 8.92573 6.52602C9.39096 6.68155 9.88854 6.71393 10.37 6.62" stroke="#D9C8AD" stroke-width="1.5" stroke-linecap="round" stroke-linejoin="round"/>
</svg>
