<svg width="128" height="62" viewBox="0 0 128 62" fill="none" xmlns="http://www.w3.org/2000/svg">
<path d="M118.5 0H9C6.61305 0 4.32387 0.948212 2.63604 2.63604C0.948212 4.32387 0 6.61305 0 9L0 39.75C0 42.1369 0.948212 44.4261 2.63604 46.114C4.32387 47.8018 6.61305 48.75 9 48.75H56.6L63.75 61.13L70.9 48.75H118.5C120.887 48.75 123.176 47.8018 124.864 46.114C126.552 44.4261 127.5 42.1369 127.5 39.75V9C127.5 6.61305 126.552 4.32387 124.864 2.63604C123.176 0.948212 120.887 0 118.5 0V0Z" fill="#7D9E64"/>
</svg>
