<svg width="20" height="22" viewBox="0 0 20 22" fill="none" xmlns="http://www.w3.org/2000/svg">
<path fill-rule="evenodd" clip-rule="evenodd" d="M0.99999 15V6.99999C0.993243 6.6425 1.08245 6.28975 1.25832 5.97845C1.4342 5.66715 1.69031 5.40869 1.99999 5.22999L8.99999 1.22999C9.30403 1.05445 9.64892 0.962036 9.99999 0.962036C10.3511 0.962036 10.696 1.05445 11 1.22999L18 5.22999C18.3097 5.40869 18.5658 5.66715 18.7417 5.97845C18.9175 6.28975 19.0067 6.6425 19 6.99999V15C18.9996 15.3507 18.907 15.6952 18.7315 15.9988C18.556 16.3025 18.3037 16.5546 18 16.73L11 20.73C10.696 20.9055 10.3511 20.9979 9.99999 20.9979C9.64892 20.9979 9.30403 20.9055 8.99999 20.73L1.99999 16.73C1.69625 16.5546 1.44397 16.3025 1.26845 15.9988C1.09293 15.6952 1.00035 15.3507 0.99999 15V15Z" stroke="#AAB5A1" stroke-width="1.5" stroke-linecap="round" stroke-linejoin="round"/>
<path d="M6 8L9.2 6L14 3" stroke="#AAB5A1" stroke-width="1.5" stroke-linecap="round" stroke-linejoin="round"/>
<path d="M7.04 13.76L4 12" stroke="#AAB5A1" stroke-width="1.5" stroke-linecap="round" stroke-linejoin="round"/>
<path d="M10 11V21.08" stroke="#AAB5A1" stroke-width="1.5" stroke-linecap="round" stroke-linejoin="round"/>
<path d="M1.27002 5.95996L10 11L18.73 5.95996" stroke="#AAB5A1" stroke-width="1.5" stroke-linecap="round" stroke-linejoin="round"/>
</svg>
