<svg width="22" height="18" viewBox="0 0 22 18" fill="none" xmlns="http://www.w3.org/2000/svg">
<path d="M2 4H1" stroke="#AAB5A1" stroke-width="1.5" stroke-linecap="round" stroke-linejoin="round"/>
<path d="M3 1H1" stroke="#AAB5A1" stroke-width="1.5" stroke-linecap="round" stroke-linejoin="round"/>
<path d="M16 17H2" stroke="#AAB5A1" stroke-width="1.5" stroke-linecap="round" stroke-linejoin="round"/>
<path d="M16.27 1L15.27 4.29C15.2058 4.50258 15.0727 4.68774 14.8916 4.8163C14.7106 4.94485 14.4919 5.00948 14.27 5H11.22C11.0603 5.00692 10.9013 4.97544 10.7562 4.90821C10.6112 4.84098 10.4844 4.73995 10.3864 4.6136C10.2885 4.48726 10.2222 4.33927 10.1933 4.18204C10.1643 4.02482 10.1735 3.86295 10.22 3.71L11.07 1" stroke="#AAB5A1" stroke-width="1.5" stroke-linecap="round" stroke-linejoin="round"/>
<path d="M7 10H9.13" stroke="#AAB5A1" stroke-width="1.5" stroke-linecap="round" stroke-linejoin="round"/>
<path d="M16.44 13H5.85C5.47571 13.0002 5.10656 12.9129 4.77205 12.745C4.43754 12.5771 4.14693 12.3333 3.92345 12.033C3.69997 11.7328 3.54981 11.3844 3.48496 11.0158C3.42012 10.6472 3.44239 10.2685 3.55 9.91L5.71 2.71C5.85934 2.21796 6.16215 1.78658 6.57416 1.47892C6.98618 1.17125 7.4858 1.00344 8 1H18.6C18.9743 0.999793 19.3434 1.08713 19.6779 1.25503C20.0125 1.42293 20.3031 1.66674 20.5265 1.96699C20.75 2.26723 20.9002 2.61558 20.965 2.98421C21.0299 3.35283 21.0076 3.73152 20.9 4.09L18.74 11.29C18.5901 11.7837 18.2858 12.2162 17.8718 12.524C17.4578 12.8319 16.9559 12.9987 16.44 13V13Z" stroke="#AAB5A1" stroke-width="1.5" stroke-linecap="round" stroke-linejoin="round"/>
</svg>
