<svg width="18" height="20" viewBox="0 0 18 20" fill="none" xmlns="http://www.w3.org/2000/svg">
<path d="M1.31002 4.53001L3.40002 1.79001C3.58736 1.54346 3.82939 1.34377 4.10704 1.20668C4.38469 1.06959 4.69038 0.998847 5.00002 1.00001H13C13.308 1.00039 13.6117 1.07188 13.8875 1.20891C14.1633 1.34594 14.4037 1.54481 14.59 1.79001L16.68 4.53001C16.9453 4.87768 17.0893 5.3027 17.09 5.74001V17C17.09 17.5304 16.8793 18.0392 16.5042 18.4142C16.1292 18.7893 15.6205 19 15.09 19H2.90002C2.36959 19 1.86088 18.7893 1.48581 18.4142C1.11074 18.0392 0.900024 17.5304 0.900024 17V5.74001C0.900729 5.3027 1.04475 4.87768 1.31002 4.53001V4.53001Z" stroke="#AAB5A1" stroke-width="1.5" stroke-linecap="round" stroke-linejoin="round"/>
<path d="M13 8C13 9.06087 12.5786 10.0783 11.8284 10.8284C11.0783 11.5786 10.0609 12 9 12C7.93913 12 6.92172 11.5786 6.17157 10.8284C5.42143 10.0783 5 9.06087 5 8" stroke="#AAB5A1" stroke-width="1.5" stroke-linecap="round" stroke-linejoin="round"/>
<path d="M1.02002 5.06006H16.98" stroke="#AAB5A1" stroke-width="1.5" stroke-linecap="round" stroke-linejoin="round"/>
</svg>
