<svg width="20" height="18" viewBox="0 0 20 18" fill="none" xmlns="http://www.w3.org/2000/svg">
<path d="M17 9H18C18.2652 9 18.5196 9.10536 18.7071 9.29289C18.8946 9.48043 19 9.73478 19 10V16C19 16.2652 18.8946 16.5196 18.7071 16.7071C18.5196 16.8946 18.2652 17 18 17H2C1.73478 17 1.48043 16.8946 1.29289 16.7071C1.10536 16.5196 1 16.2652 1 16V10C1 9.73478 1.10536 9.48043 1.29289 9.29289C1.48043 9.10536 1.73478 9 2 9H3" stroke="#AAB5A1" stroke-width="1.5" stroke-linecap="round" stroke-linejoin="round"/>
<path d="M13 3L16 6" stroke="#AAB5A1" stroke-width="1.5" stroke-linecap="round" stroke-linejoin="round"/>
<path d="M14.71 1.29006L7.24003 8.76006C7.14735 8.8535 7.07402 8.96432 7.02426 9.08615C6.97449 9.20799 6.94927 9.33845 6.95003 9.47006V12.0001H9.59003C9.85237 11.999 10.1038 11.8948 10.29 11.7101L17.71 4.29006C17.8963 4.1027 18.0008 3.84925 18.0008 3.58506C18.0008 3.32087 17.8963 3.06742 17.71 2.88006L16.12 1.29006C15.9327 1.10381 15.6792 0.999268 15.415 0.999268C15.1508 0.999268 14.8974 1.10381 14.71 1.29006V1.29006Z" stroke="#AAB5A1" stroke-width="1.5" stroke-linecap="round" stroke-linejoin="round"/>
</svg>
