<svg width="18" height="20" viewBox="0 0 18 20" fill="none" xmlns="http://www.w3.org/2000/svg">
<path d="M17 9.18C16.944 11.4722 16.1278 13.6807 14.6796 15.4583C13.2314 17.2359 11.2335 18.4818 9 19C6.76648 18.4818 4.76856 17.2359 3.32039 15.4583C1.87223 13.6807 1.05598 11.4722 0.999998 9.18V5.62C0.998004 5.22174 1.11496 4.83196 1.33587 4.50058C1.55679 4.16921 1.87161 3.91133 2.24 3.76L7.24 1.76C8.36821 1.29981 9.63179 1.29981 10.76 1.76L15.76 3.76C16.1284 3.91133 16.4432 4.16921 16.6641 4.50058C16.885 4.83196 17.002 5.22174 17 5.62V9.18Z" stroke="#D9C8AD" stroke-width="1.5" stroke-linecap="round" stroke-linejoin="round"/>
<path d="M12.25 8.13L8.5 11.88L6.25 9.63" stroke="#D9C8AD" stroke-width="1.5" stroke-linecap="round" stroke-linejoin="round"/>
</svg>
