<svg width="20" height="20" viewBox="0 0 20 20" fill="none" xmlns="http://www.w3.org/2000/svg">
<path d="M4.08 10.31C4.02558 10.2158 3.99693 10.1088 3.99693 10C3.99693 9.89117 4.02558 9.78425 4.08 9.69C5.34 7.36 7.67 5.33 10 5.33C12.33 5.33 14.66 7.33 15.92 9.69C15.9744 9.78425 16.0031 9.89117 16.0031 10C16.0031 10.1088 15.9744 10.2158 15.92 10.31C14.66 12.64 12.33 14.67 10 14.67C7.67 14.67 5.34 12.64 4.08 10.31Z" stroke="#D9C8AD" stroke-width="1.5" stroke-linecap="round" stroke-linejoin="round"/>
<path d="M10 11.75C10.9665 11.75 11.75 10.9665 11.75 10C11.75 9.0335 10.9665 8.25 10 8.25C9.0335 8.25 8.25 9.0335 8.25 10C8.25 10.9665 9.0335 11.75 10 11.75Z" stroke="#D9C8AD" stroke-width="1.5" stroke-linecap="round" stroke-linejoin="round"/>
<path d="M5.5 1H3.25C2.65326 1 2.08097 1.23705 1.65901 1.65901C1.23705 2.08097 1 2.65326 1 3.25V5.5" stroke="#D9C8AD" stroke-width="1.5" stroke-linecap="round" stroke-linejoin="round"/>
<path d="M1 14.5V16.75C1 17.3467 1.23705 17.919 1.65901 18.341C2.08097 18.7629 2.65326 19 3.25 19H5.5" stroke="#D9C8AD" stroke-width="1.5" stroke-linecap="round" stroke-linejoin="round"/>
<path d="M14.5 19H16.75C17.3467 19 17.919 18.7629 18.341 18.341C18.7629 17.919 19 17.3467 19 16.75V14.5" stroke="#D9C8AD" stroke-width="1.5" stroke-linecap="round" stroke-linejoin="round"/>
<path d="M19 5.5V3.25C19 2.65326 18.7629 2.08097 18.341 1.65901C17.919 1.23705 17.3467 1 16.75 1H14.5" stroke="#D9C8AD" stroke-width="1.5" stroke-linecap="round" stroke-linejoin="round"/>
</svg>
