<?xml version="1.0" encoding="utf-8"?><svg xmlns="http://www.w3.org/2000/svg" xmlns:xlink="http://www.w3.org/1999/xlink"><symbol viewBox="0 0 22 24" id="basket" xmlns="http://www.w3.org/2000/svg"><g clip-path="url(#aa)"><path d="M10.363 18.443a2.046 2.046 0 00-2.045 2.042 2.046 2.046 0 004.09 0 2.046 2.046 0 00-2.045-2.042zm6.134 0a2.046 2.046 0 00-2.045 2.042 2.046 2.046 0 004.089 0 2.046 2.046 0 00-2.044-2.042zm3.978-8.199L7.413 6.891a.614.614 0 00-.75.73L8.67 16.4h-.786L5.482 5.895a.613.613 0 00-.474-.464l-4.27-.882A.614.614 0 00.489 5.75l3.885.802L6.797 17.15a.613.613 0 00.598.477h12.07a.615.615 0 00.607-.53l.858-6.175a.613.613 0 00-.455-.678zm-8.14 3.91a.613.613 0 01-1.227 0v-2.696a.613.613 0 011.227 0v2.696zm2.625 0a.613.613 0 01-1.227 0v-1.88a.613.613 0 011.227 0v1.88zm2.625 0a.613.613 0 01-1.227 0v-1.226a.613.613 0 011.227 0v1.226z"/></g><path fill-rule="evenodd" clip-rule="evenodd" d="M16.268 4.568a2.996 2.996 0 00-1.693-.523c-.627 0-1.21.193-1.693.523-.28-.843-.492-1.752-.492-2.383C12.39.98 13.37 0 14.575 0s2.185.98 2.185 2.185c0 .631-.212 1.54-.492 2.383zm-4.722 2.274l.024.006v-.011l-.024.005zm4.972 1.217c-1.333-.33-2.766-.681-4.129-1.013a2.185 2.185 0 114.129 1.013zm4.436 1.103c-.866-.217-2.155-.538-3.618-.9a2.995 2.995 0 00.243-1.425c.87.18 1.762.45 2.308.765.596.344.969.928 1.067 1.56zM9.869 6.439c-.36-.086-.706-.167-1.03-.243a2.19 2.19 0 01-.376-2.667 2.188 2.188 0 013.147-.7c.098.738.338 1.599.61 2.353a3.01 3.01 0 00-.449.774c-.628.113-1.305.278-1.902.483zm10.124.075a3.43 3.43 0 01-.217.114c-.696-.295-1.587-.526-2.397-.672a3.01 3.01 0 00-.449-.774c.262-.727.494-1.553.599-2.273.095-.067.189-.128.278-.18a2.188 2.188 0 012.986.8 2.188 2.188 0 01-.8 2.985z"/><defs><clipPath id="aa"><path transform="translate(0 3.064)" d="M0 0h20.936v20.936H0z"/></clipPath></defs></symbol><symbol viewBox="0 0 344.96 344.96" id="check" xmlns="http://www.w3.org/2000/svg"><g data-name="Слой 2"><path class="bcls-1" d="M321.85 86.24l-40-23.11-23.1-40H212.5L172.48 0l-40 23.11H86.24l-23.11 40-40 23.1v46.21L0 172.48l23.11 40v46.21l40 23.11 23.11 40h46.21l40 23.1 40-23.11h46.21l23.11-40 40-23.11V212.5l23.11-40-23.11-40V86.24zM156.91 243.07a16.79 16.79 0 01-23.34 0l-50.45-50.44a16.19 16.19 0 010-22.89l13.35-13.35a16.19 16.19 0 0122.89 0l25.87 25.87 80.34-80.35a16.19 16.19 0 0122.89 0l13.35 13.35a16.19 16.19 0 010 22.89z" data-name="Capa 1"/></g></symbol><symbol viewBox="0 0 11 17" id="chevron-left" xmlns="http://www.w3.org/2000/svg"><path d="M1.06 7.779L8.374.358A.884.884 0 019.01.091c.24 0 .466.095.635.267l.539.546c.35.356.35.935 0 1.29l-6.14 6.232 6.147 6.238a.914.914 0 01.262.645.914.914 0 01-.262.646l-.539.546a.885.885 0 01-.635.266.885.885 0 01-.636-.266L1.06 9.073a.913.913 0 01-.26-.647.909.909 0 01.262-.647z"/></symbol><symbol viewBox="0 0 11 17" id="chevron-right" xmlns="http://www.w3.org/2000/svg"><path d="M9.94 7.779L2.626.358A.884.884 0 001.99.091a.885.885 0 00-.636.267L.817.904a.923.923 0 000 1.29l6.14 6.232L.81 14.664a.913.913 0 00-.262.645c0 .245.093.474.262.646l.539.546a.882.882 0 00.635.266c.24 0 .467-.094.636-.266l7.32-7.428a.913.913 0 00.261-.647.913.913 0 00-.262-.647z"/></symbol><symbol viewBox="0 0 24 24" id="fb" xmlns="http://www.w3.org/2000/svg"><path d="M13.397 20.997v-8.196h2.765l.411-3.209h-3.176V7.548c0-.926.258-1.56 1.587-1.56h1.684v-2.86A22.108 22.108 0 0014.201 3c-2.444 0-4.122 1.492-4.122 4.231v2.355H7.332v3.21h2.753v8.201h3.312z"/></symbol><symbol viewBox="0 0 8 18" id="fb-footer" xmlns="http://www.w3.org/2000/svg"><path d="M1.871 3.941v2.272H.25v2.778h1.62v8.256H5.2V8.99h2.235s.209-1.332.31-2.788H5.214v-1.9c0-.283.363-.665.722-.665H7.75V.746H5.283c-3.494 0-3.412 2.78-3.412 3.195z"/></symbol><symbol viewBox="0 0 20 16" id="google-footer" xmlns="http://www.w3.org/2000/svg"><path d="M19.198 8.44V7.243h-1.406V5.847h-1.206v1.396H15.18V8.44h1.406v1.396h1.206V8.44zm-4.464 1.082V7.247H7.858v2.275h4.195a4.909 4.909 0 01-4.686 3.414c-2.713 0-4.911-2.183-4.911-4.876 0-2.693 2.198-4.876 4.91-4.876 1.367 0 2.602.554 3.492 1.447l1.664-1.796A7.37 7.37 0 007.367.745C3.298.746 0 4.02 0 8.06c0 4.039 3.298 7.314 7.367 7.314 3.564 0 6.684-2.513 7.367-5.852z"/></symbol><symbol viewBox="0 0 9 12" id="input-check" xmlns="http://www.w3.org/2000/svg"><path d="M.75.591h7.5V11.84L4.5 8.772.75 11.84z"/></symbol><symbol viewBox="0 0 24 24" id="instagram" xmlns="http://www.w3.org/2000/svg"><path d="M11.999 7.377a4.624 4.624 0 100 9.248 4.624 4.624 0 000-9.248zm0 7.627a3.004 3.004 0 110-6.008 3.004 3.004 0 010 6.008zm4.807-6.719a1.078 1.078 0 100-2.156 1.078 1.078 0 000 2.156z"/><path d="M20.533 6.11A4.605 4.605 0 0017.9 3.48a6.607 6.607 0 00-2.186-.42c-.963-.042-1.268-.054-3.71-.054s-2.755 0-3.71.054a6.554 6.554 0 00-2.184.42 4.6 4.6 0 00-2.633 2.63 6.585 6.585 0 00-.419 2.186c-.043.962-.056 1.267-.056 3.71 0 2.442 0 2.753.056 3.71.015.748.156 1.486.419 2.187a4.61 4.61 0 002.634 2.632 6.583 6.583 0 002.185.45c.963.042 1.268.055 3.71.055s2.755 0 3.71-.055a6.616 6.616 0 002.186-.42 4.613 4.613 0 002.633-2.632c.263-.7.404-1.438.419-2.186.043-.962.056-1.267.056-3.71s0-2.753-.056-3.71a6.583 6.583 0 00-.421-2.217zm-1.218 9.533a5.046 5.046 0 01-.311 1.688 2.987 2.987 0 01-1.712 1.71c-.535.2-1.1.305-1.67.312-.95.044-1.218.055-3.654.055-2.438 0-2.687 0-3.655-.055a4.961 4.961 0 01-1.67-.311 2.984 2.984 0 01-1.718-1.711 5.08 5.08 0 01-.311-1.67c-.043-.95-.053-1.217-.053-3.653 0-2.437 0-2.686.053-3.655a5.038 5.038 0 01.311-1.687c.305-.79.93-1.41 1.719-1.712a5.01 5.01 0 011.669-.311c.95-.043 1.218-.055 3.655-.055s2.687 0 3.654.055a4.96 4.96 0 011.67.31 2.99 2.99 0 011.712 1.713 5.06 5.06 0 01.311 1.669c.043.95.054 1.218.054 3.655 0 2.436 0 2.698-.043 3.654h-.011v-.001z"/></symbol><symbol viewBox="0 0 16 17" id="instagram-footer" xmlns="http://www.w3.org/2000/svg"><path d="M15.75 2.32v12.601a1.58 1.58 0 01-1.575 1.576h-12.6A1.58 1.58 0 010 14.92V2.32A1.58 1.58 0 011.575.744h12.6A1.58 1.58 0 0115.75 2.32zM4.725 8.62a3.16 3.16 0 003.15 3.151 3.16 3.16 0 003.15-3.15 3.16 3.16 0 00-3.15-3.15 3.16 3.16 0 00-3.15 3.15zm9.056 6.301c.236 0 .394-.157.394-.393V7.834H12.52c.079.236.079.55.079.787a4.74 4.74 0 01-4.725 4.725A4.74 4.74 0 013.15 8.621c0-.236 0-.551.079-.787H1.575v6.694c0 .236.157.393.394.393zm.394-12.206c0-.237-.158-.395-.394-.395h-1.575c-.236 0-.394.158-.394.395v1.574c0 .237.158.394.394.394h1.575c.236 0 .394-.157.394-.394z"/></symbol><symbol viewBox="0 0 14 12" id="pass-eye" xmlns="http://www.w3.org/2000/svg"><path d="M1.08 6.31a.62.62 0 010-.62C2.34 3.36 4.67 1.33 7 1.33s4.66 2 5.92 4.36a.62.62 0 010 .62C11.66 8.64 9.33 10.67 7 10.67S2.34 8.64 1.08 6.31z"/><path d="M7 7.75a1.75 1.75 0 100-3.5 1.75 1.75 0 000 3.5z"/></symbol><symbol viewBox="0 0 18 19" id="phone-call-q" xmlns="http://www.w3.org/2000/svg"><path d="M17.055 8.62c-.002-.062-.005-.123-.005-.175.048-3.898-3.289-7.432-7.14-7.563-.017 0-.032 0-.047.002a.364.364 0 01-.046.002c-.038 0-.086-.003-.136-.006a2.859 2.859 0 00-.199-.01c-.613 0-.73.442-.745.704-.034.607.547.65.826.67.068.006.132.01.185.019 3.74.581 5.46 2.373 5.937 6.184.008.065.01.144.01.228.005.297.015.917.673.93h.02c.207 0 .371-.063.488-.187.205-.217.19-.539.18-.797zM9.297 5.825c-.075.217-.066.406.026.561.135.228.393.297.628.336.85.138 1.288.614 1.376 1.497.04.413.315.7.667.7a.7.7 0 00.08-.004c.423-.051.629-.366.61-.936.007-.595-.301-1.27-.825-1.808-.525-.54-1.158-.843-1.734-.83-.218.007-.67.018-.829.484zm.537-1.32c.072.01.139.02.195.032 2.278.515 3.045 1.324 3.42 3.607.009.056.013.125.017.197.017.274.05.841.655.841.05 0 .104-.004.16-.012.562-.087.545-.606.536-.855-.002-.07-.004-.137.001-.181a.253.253 0 00.003-.034c.02-2.428-2.025-4.655-4.56-4.963a4.233 4.233 0 01-.164-.024 2.336 2.336 0 00-.386-.043c-.52 0-.659.369-.695.589-.036.214-.002.394.1.534.172.237.475.279.718.313zM5.665 9.19c-.343-.78-.231-1.289.372-1.703.343-.236.98-.673.936-1.512-.052-.952-2.13-3.817-3.005-4.142a1.69 1.69 0 00-1.16-.003C1.803 2.17 1.08 2.772.72 3.566c-.348.768-.332 1.669.045 2.606 1.092 2.71 2.628 5.074 4.564 7.024 1.895 1.909 4.224 3.472 6.923 4.648.243.105.498.163.684.205.064.014.119.027.159.038.022.006.044.01.067.01h.021c1.27 0 2.794-1.173 3.262-2.51.41-1.17-.339-1.75-.94-2.214a14.34 14.34 0 01-.24-.187c-.408-.333-.842-.64-1.262-.936l-.262-.184c-.538-.382-1.022-.568-1.479-.568-.616 0-1.152.344-1.596 1.022-.196.3-.434.447-.727.447-.174 0-.371-.05-.587-.149-1.737-.796-2.977-2.017-3.687-3.63z"/></symbol><symbol viewBox="0 0 17 16" id="phone-q" xmlns="http://www.w3.org/2000/svg"><path d="M16.227 11.655l-2.851-1.528c-.95-.515-.983-.177-1.982.885-.241.257-.692.933-1.224.804-1.111-.273-3.189-1.899-3.865-2.639-.322-.354-1.708-2.043-1.724-2.59C4.55 5.75 6.385 5.33 5.79 3.738L4.517.89C3.325-1.845-.01 2.532.265 4.575c.708 5.037 9.551 13.18 14.48 10.492 1.095-.612 2.577-2.752 1.482-3.412z"/></symbol><symbol viewBox="0 0 14 14" id="star" xmlns="http://www.w3.org/2000/svg"><path d="M7.069.518l1.717 4.026 4.397.374a.343.343 0 01.197.6L10.046 8.38l.999 4.257a.345.345 0 01-.517.371L6.75 10.752l-3.778 2.256c-.263.157-.586-.076-.516-.371l1-4.257L.12 5.518a.342.342 0 01.197-.6l4.397-.375L6.43.518a.347.347 0 01.638 0z"/></symbol><symbol viewBox="0 0 16 16" id="telegram" xmlns="http://www.w3.org/2000/svg"><path d="M14.629 3.698l-2.012 9.618c-.152.679-.548.848-1.11.528l-3.066-2.29-1.48 1.442c-.163.166-.3.305-.616.305l.22-3.165 5.683-5.204c.247-.223-.054-.347-.384-.123L4.839 9.29l-3.024-.959c-.658-.208-.67-.667.137-.986L13.78 2.727c.548-.208 1.027.124.849.971z"/></symbol><symbol viewBox="0 0 20.4 18" id="telegram-q" xmlns="http://www.w3.org/2000/svg"><path d="M.4 7.6l18.2-7c.4-.2.8.2.7.6L16 17c-.1.3-.3.5-.6.4-.1 0-.1 0-.2-.1L10.8 14c-.3-.2-.6-.2-.9 0l-2.5 2c-.2.2-.5.2-.7-.1 0-.1-.1-.1-.1-.2l-1.7-5.5L.4 8.6c-.2-.1-.4-.4-.3-.7l.3-.3zm5.5 2.8l.9 3.3c.1.2.4.2.4 0l.2-1.8c0-.3.2-.7.5-.9l7.2-6.7c.1-.1 0-.3-.2-.2L6.3 9.4c-.3.2-.5.6-.4 1z"/></symbol><symbol viewBox="0 0 20 16" id="twitter-footer" xmlns="http://www.w3.org/2000/svg"><path d="M17.445 2.62c.849-.519 1.41-1.228 1.686-2.13a9.138 9.138 0 01-2.47.902C15.923.601 14.987.2 13.867.2c-1.096 0-2.022.383-2.778 1.128a3.723 3.723 0 00-1.13 2.727c0 .324.041.613.123.858C6.85 4.802 4.175 3.466 2.068.895c-.357.63-.536 1.27-.536 1.933 0 1.361.577 2.44 1.729 3.233-.657-.055-1.236-.22-1.729-.491 0 .972.287 1.784.862 2.499A3.804 3.804 0 004.616 9.42a4.133 4.133 0 01-1.029.124c-.328 0-.56-.027-.697-.086a3.699 3.699 0 001.356 1.927 3.851 3.851 0 002.26.778c-1.399 1.094-2.999 1.635-4.81 1.635-.442 0-.756-.006-.947-.04 1.783 1.153 3.768 1.726 5.963 1.726 2.248 0 4.234-.568 5.963-1.702 1.727-1.129 3.003-2.521 3.822-4.16A11.254 11.254 0 0017.73 4.5v-.49a8.18 8.18 0 001.932-2.011 8.556 8.556 0 01-2.216.62z"/></symbol><symbol viewBox="0 0 16 16" id="viber" xmlns="http://www.w3.org/2000/svg"><path d="M8 1.335c-1.071.013-3.374.19-4.662 1.37-.958.948-1.292 2.35-1.331 4.084-.033 1.728-.072 4.973 3.058 5.856v1.346s-.02.538.337.648c.438.14.688-.275 1.105-.72l.778-.879c2.142.178 3.782-.232 3.97-.293.435-.139 2.883-.451 3.283-3.696.41-3.351-.2-5.463-1.301-6.418h-.007c-.332-.306-1.668-1.279-4.652-1.29 0 0-.222-.014-.578-.008zm.037.942a7.02 7.02 0 01.488.011c2.527.007 3.732.767 4.017 1.023.927.794 1.405 2.697 1.055 5.495-.332 2.713-2.317 2.885-2.685 3.002-.156.05-1.6.406-3.42.289 0 0-1.356 1.634-1.78 2.055-.067.074-.146.095-.196.085-.071-.018-.093-.107-.089-.229l.013-2.233c-2.655-.733-2.498-3.5-2.47-4.946.033-1.446.304-2.628 1.113-3.43 1.088-.982 3.043-1.115 3.953-1.122zm.2 1.446a.166.166 0 100 .332 3.136 3.136 0 012.242.883c.606.588.9 1.378.912 2.411 0 .092.074.167.167.167V7.51a.167.167 0 00.168-.165 3.588 3.588 0 00-1.009-2.646c-.66-.645-1.496-.977-2.48-.977zm-2.198.382a.523.523 0 00-.342.067H5.69a2.61 2.61 0 00-.637.523 1.003 1.003 0 00-.256.525.71.71 0 00.026.302l.01.006c.172.504.396.988.67 1.444a8.48 8.48 0 001.29 1.762l.015.022.024.017.015.018.017.015c.532.505 1.127.94 1.769 1.295.734.4 1.18.588 1.447.667v.004c.078.024.15.034.221.034.228-.016.444-.109.613-.262a2.53 2.53 0 00.517-.638v-.004c.128-.241.085-.469-.1-.623-.37-.323-.77-.61-1.195-.857-.285-.155-.574-.061-.69.095l-.25.315c-.129.156-.361.134-.361.134l-.007.004C7.093 8.527 6.63 6.772 6.63 6.772s-.022-.239.139-.36l.312-.252c.15-.122.254-.41.094-.695a7.498 7.498 0 00-.856-1.194.475.475 0 00-.28-.167zm2.486.495c-.221 0-.221.334.003.334A2.098 2.098 0 0110 5.572 1.94 1.94 0 0110.5 7a.168.168 0 00.167.165l.007.009a.169.169 0 00.167-.167c.015-.662-.191-1.218-.595-1.663C9.84 4.9 9.273 4.65 8.549 4.6h-.024zm.274.898c-.228-.006-.236.335-.01.341.55.029.816.306.851.877a.166.166 0 00.165.163h.007a.168.168 0 00.16-.178c-.039-.744-.445-1.164-1.166-1.202H8.8z"/></symbol><symbol viewBox="0 0 24 24" id="vk" xmlns="http://www.w3.org/2000/svg"><path d="M21.579 6.855c.14-.465 0-.806-.662-.806h-2.193c-.558 0-.813.295-.953.619 0 0-1.115 2.719-2.695 4.482-.51.513-.743.675-1.021.675-.139 0-.341-.162-.341-.627V6.855c0-.558-.161-.806-.626-.806H9.642c-.348 0-.558.258-.558.504 0 .528.79.65.871 2.138v3.228c0 .707-.127.836-.407.836-.743 0-2.551-2.73-3.624-5.853-.209-.607-.42-.852-.98-.852H2.752c-.627 0-.752.295-.752.619 0 .582.743 3.462 3.461 7.27 1.812 2.602 4.363 4.012 6.687 4.012 1.393 0 1.565-.313 1.565-.853v-1.966c0-.626.133-.752.574-.752.324 0 .882.164 2.183 1.417 1.486 1.486 1.732 2.153 2.567 2.153h2.192c.626 0 .939-.313.759-.931-.197-.615-.907-1.51-1.849-2.57-.512-.603-1.277-1.253-1.51-1.578-.325-.42-.231-.604 0-.976.001 0 2.672-3.761 2.95-5.04z"/></symbol><symbol viewBox="0 0 19 20" id="watsapp-q" xmlns="http://www.w3.org/2000/svg"><path d="M9.542 18.626a9.272 9.272 0 01-4.36-1.087L.319 19.085a.244.244 0 01-.304-.31l1.58-4.665A9.07 9.07 0 01.333 9.488c0-5.04 4.132-9.139 9.21-9.139 5.077 0 9.208 4.1 9.208 9.139s-4.13 9.138-9.208 9.138zm0-16.373c-4.023 0-7.295 3.246-7.295 7.235 0 1.533.48 3 1.389 4.241.047.064.06.147.034.222l-.787 2.32 2.437-.774a.243.243 0 01.207.028 7.298 7.298 0 004.015 1.197c4.021 0 7.293-3.245 7.293-7.234 0-3.99-3.272-7.235-7.294-7.235zm2.936 11.6l-.067.005c-.106.01-.226.023-.376.023-.356 0-.983-.061-2.306-.59-1.375-.55-2.732-1.727-3.82-3.316L5.87 9.92c-.284-.374-.945-1.359-.945-2.401 0-1.159.554-1.817.882-2.024.309-.195 1.008-.287 1.137-.293l.105-.004c.27 0 .466.164.613.518.062.146.639 1.539.671 1.603.04.078.162.317.019.6l-.03.062c-.06.119-.11.22-.223.352a9.586 9.586 0 00-.11.132c-.078.093-.159.19-.233.264a.419.419 0 00-.08.095s0 .017.023.054c.152.258 1.265 1.79 2.731 2.426.064.028.276.115.288.115.014 0 .037-.023.053-.042.128-.144.541-.627.678-.83.12-.18.276-.273.46-.273.113 0 .22.035.319.07.243.088 1.61.761 1.646.779.18.086.32.154.403.288.12.199.072.745-.108 1.246-.229.635-1.234 1.156-1.691 1.196z"/></symbol><symbol viewBox="0 0 16 16" id="whatsapp" xmlns="http://www.w3.org/2000/svg"><path fill-rule="evenodd" clip-rule="evenodd" d="M12.269 3.755A5.947 5.947 0 008.035 2 5.994 5.994 0 002.05 7.985a5.98 5.98 0 00.799 2.992L2 14.077l3.173-.832c.877.477 1.86.728 2.86.728h.002a5.993 5.993 0 005.533-8.276 5.953 5.953 0 00-1.3-1.942zm-4.234 9.208h-.002c-.89 0-1.765-.24-2.532-.694l-.181-.108-1.883.494.502-1.835-.118-.188a4.965 4.965 0 01-.76-2.647 4.982 4.982 0 016.88-4.597c.604.25 1.152.618 1.613 1.081a4.946 4.946 0 011.455 3.52 4.982 4.982 0 01-4.974 4.974zm2.729-3.726c-.15-.075-.885-.436-1.022-.486-.137-.05-.236-.075-.336.074-.1.15-.387.486-.474.586-.087.1-.175.112-.324.038-.15-.075-.631-.233-1.203-.742a4.505 4.505 0 01-.832-1.036c-.087-.15-.009-.231.066-.306.068-.066.15-.174.224-.262.075-.087.1-.149.15-.249.05-.1.025-.187-.013-.262-.037-.075-.337-.811-.461-1.11-.121-.29-.244-.252-.336-.256a6.418 6.418 0 00-.286-.005.55.55 0 00-.4.186c-.137.15-.523.512-.523 1.248s.536 1.447.61 1.547c.075.1 1.055 1.61 2.555 2.258.358.154.636.246.853.315.358.114.684.098.942.06.287-.043.885-.362 1.01-.711.124-.35.124-.649.087-.711-.038-.063-.138-.101-.287-.176z"/></symbol><symbol viewBox="0 0 16 19" id="youtube-footer" xmlns="http://www.w3.org/2000/svg"><path d="M15.45 17.245c-.098.415-.3.763-.606 1.044a1.813 1.813 0 01-1.065.486c-1.28.148-3.211.222-5.793.222-2.582 0-4.513-.074-5.794-.222a1.837 1.837 0 01-1.07-.486c-.31-.28-.51-.629-.6-1.044-.181-.788-.272-2.02-.272-3.694 0-1.646.09-2.877.271-3.693.098-.415.3-.764.606-1.045a1.883 1.883 0 011.075-.496c1.274-.14 3.202-.21 5.784-.21s4.513.07 5.793.21a1.9 1.9 0 011.07.496c.31.281.51.63.6 1.045.182.788.272 2.02.272 3.693 0 1.647-.09 2.877-.271 3.694zM4.666 9.932H1.41v.992h1.096v6.004H3.55v-6.004h1.117zm2.819 1.783h-.93v3.99c-.208.295-.407.442-.595.442-.125 0-.198-.073-.219-.22a2.981 2.981 0 01-.01-.37v-3.842H4.8v4.126c0 .345.029.602.084.77.084.26.286.391.606.391.334 0 .689-.214 1.065-.644v.57h.929zm3.549 1.572c0-.513-.031-.861-.094-1.044-.118-.393-.365-.591-.741-.591-.348 0-.672.19-.971.57v-2.29h-.93v6.996h.93v-.506c.313.387.637.58.97.58.377 0 .624-.193.742-.58.063-.19.094-.542.094-1.055zm3.528 1.837h-.95c0 .359-.007.573-.02.643-.05.254-.189.38-.418.38-.32 0-.48-.242-.48-.728v-.917h1.868v-1.088c0-.556-.094-.964-.282-1.224-.27-.358-.64-.538-1.106-.538-.473 0-.846.18-1.117.538-.195.26-.292.668-.292 1.224v1.826c0 .556.1.963.302 1.224.272.358.648.538 1.128.538.5 0 .877-.186 1.127-.56.126-.19.199-.38.22-.569.013-.063.02-.267.02-.612zm-1.868-1.9c0-.478.156-.717.47-.717.312 0 .47.239.47.718v.485h-.94zm-2.996 2.923c-.16 0-.317-.077-.47-.232v-3.176c.153-.155.31-.232.47-.232.27 0 .407.235.407.706v2.227c0 .472-.136.707-.407.707zm2.014-9.57c-.368.436-.727.653-1.075.653-.32 0-.525-.13-.616-.39-.055-.17-.083-.433-.083-.792V1.89h.95v3.873c0 .232.003.355.01.37.02.155.094.232.22.232.187 0 .386-.152.594-.454v-4.02h.95v5.265h-.95zm-3.946.653c-.466 0-.831-.18-1.096-.538-.195-.267-.292-.682-.292-1.245V3.6c0-.563.098-.974.292-1.235.265-.359.63-.538 1.096-.538.48 0 .85.18 1.107.538.195.26.292.672.292 1.235v1.847c0 .57-.097.984-.292 1.245-.258.359-.626.538-1.107.538zm.45-3.82c0-.486-.15-.729-.45-.729-.299 0-.449.243-.449.73v2.215c0 .492.15.739.45.739.299 0 .448-.247.448-.74zM5.104 7.156H4.06v-2.86c-.098-.52-.31-1.266-.637-2.237A91.246 91.246 0 012.745.086h1.107l.741 2.775.71-2.775h1.065l-1.263 4.21z"/></symbol></svg>