<svg width="20" height="18" viewBox="0 0 20 18" fill="none" xmlns="http://www.w3.org/2000/svg">
<path d="M10 14.77L14 16.88C14.1765 16.9697 14.3744 17.0086 14.5717 16.9925C14.769 16.9763 14.958 16.9058 15.1176 16.7887C15.2772 16.6716 15.4012 16.5125 15.4758 16.3291C15.5503 16.1457 15.5726 15.9453 15.54 15.75L14.78 11.29L18 8.13C18.1453 7.99228 18.2485 7.81625 18.2979 7.62228C18.3473 7.42831 18.3407 7.22432 18.279 7.03392C18.2173 6.84352 18.1029 6.67449 17.9491 6.54638C17.7953 6.41826 17.6084 6.33631 17.41 6.31L13 5.66L11 1.59C10.9124 1.41292 10.777 1.26387 10.6091 1.15965C10.4412 1.05544 10.2476 1.00021 10.05 1.00021C9.85242 1.00021 9.65877 1.05544 9.49091 1.15965C9.32305 1.26387 9.18765 1.41292 9.10001 1.59L7.00001 5.66L2.52001 6.31C2.32728 6.34684 2.14856 6.43646 2.00374 6.56886C1.85893 6.70127 1.75372 6.87128 1.69981 7.05995C1.64591 7.24861 1.64543 7.44854 1.69843 7.63747C1.75143 7.82639 1.85583 7.9969 2.00001 8.13L5.24001 11.29L4.48001 15.75C4.44989 15.9426 4.47298 16.1398 4.54679 16.3203C4.62059 16.5008 4.74231 16.6577 4.89878 16.774C5.05526 16.8903 5.24055 16.9617 5.43463 16.9804C5.62871 16.999 5.82421 16.9643 6.00001 16.88L10 14.77Z" stroke="#D9C8AD" stroke-width="1.5" stroke-linecap="round" stroke-linejoin="round"/>
</svg>
