<svg width="22" height="22" viewBox="0 0 22 22" fill="none" xmlns="http://www.w3.org/2000/svg">
<path d="M6.08001 20.81C7.05112 20.81 8.00042 20.522 8.80786 19.9825C9.61531 19.443 10.2446 18.6762 10.6163 17.779C10.9879 16.8818 11.0851 15.8945 10.8957 14.9421C10.7062 13.9897 10.2386 13.1148 9.55191 12.4281C8.86523 11.7414 7.99035 11.2738 7.03791 11.0843C6.08546 10.8949 5.09822 10.9921 4.20104 11.3637C3.30385 11.7354 2.53702 12.3647 1.9975 13.1721C1.45798 13.9796 1.17001 14.9289 1.17001 15.9" stroke="#D9C8AD" stroke-width="1.5" stroke-linecap="round" stroke-linejoin="round"/>
<path d="M6.08 20.81C5.36214 20.8136 4.6522 20.66 4 20.36L1 21L1.63 18C1.32903 17.3478 1.17214 16.6383 1.17 15.92" stroke="#D9C8AD" stroke-width="1.5" stroke-linecap="round" stroke-linejoin="round"/>
<path d="M5.56 11C5.19483 10.1711 5.00421 9.27581 5 8.37C5 4.37 8.6 1.13 13 1.13C17.4 1.13 21 4.36 21 8.37C20.9837 9.52242 20.683 10.653 20.1248 11.6613C19.5666 12.6696 18.768 13.5245 17.8 14.15V17L14.66 15.45C14.1135 15.5591 13.5573 15.6127 13 15.61C12.3263 15.6082 11.655 15.5276 11 15.37" stroke="#D9C8AD" stroke-width="1.5" stroke-linecap="round" stroke-linejoin="round"/>
</svg>
