<svg width="22" height="20" viewBox="0 0 22 20" fill="none" xmlns="http://www.w3.org/2000/svg">
<path d="M10.5 10.1C11.8807 10.1 13 8.98072 13 7.60001C13 6.21929 11.8807 5.10001 10.5 5.10001C9.11929 5.10001 8 6.21929 8 7.60001C8 8.98072 9.11929 10.1 10.5 10.1Z" stroke="#D9C8AD" stroke-width="1.5" stroke-linecap="round" stroke-linejoin="round"/>
<path d="M20 11V3.10001C20 2.56957 19.7893 2.06087 19.4142 1.68579C19.0391 1.31072 18.5304 1.10001 18 1.10001H3C2.46957 1.10001 1.96086 1.31072 1.58579 1.68579C1.21071 2.06087 1 2.56957 1 3.10001V12.1C1 12.3626 1.05173 12.6227 1.15224 12.8654C1.25275 13.108 1.40007 13.3285 1.58579 13.5142C1.7715 13.6999 1.99198 13.8473 2.23463 13.9478C2.47728 14.0483 2.73736 14.1 3 14.1H11.26" stroke="#D9C8AD" stroke-width="1.5" stroke-linecap="round" stroke-linejoin="round"/>
<path d="M4 11.1H6" stroke="#D9C8AD" stroke-width="1.5" stroke-linecap="round" stroke-linejoin="round"/>
<path d="M15 4.10001H17" stroke="#D9C8AD" stroke-width="1.5" stroke-linecap="round" stroke-linejoin="round"/>
<path d="M14.37 12C13.7497 12.0173 13.1453 12.2002 12.6195 12.5296C12.0936 12.8591 11.6654 13.3231 11.3793 13.8737C11.0931 14.4243 10.9593 15.0415 10.9919 15.6611C11.0244 16.2808 11.2221 16.8805 11.5643 17.3981C11.9066 17.9157 12.381 18.3324 12.9385 18.605C13.496 18.8775 14.1162 18.9961 14.7349 18.9483C15.3536 18.9006 15.9482 18.6883 16.4573 18.3334C16.9663 17.9785 17.3712 17.494 17.63 16.93" stroke="#D9C8AD" stroke-width="1.5" stroke-linecap="round" stroke-linejoin="round"/>
<path d="M17.52 16.9C16.8317 16.9 16.1589 16.6959 15.5866 16.3135C15.0143 15.9311 14.5683 15.3876 14.3049 14.7517C14.0415 14.1159 13.9726 13.4161 14.1069 12.7411C14.2412 12.066 14.5726 11.446 15.0593 10.9593C15.546 10.4726 16.166 10.1411 16.8411 10.0069C17.5161 9.87259 18.2159 9.94151 18.8517 10.2049C19.4876 10.4683 20.0311 10.9143 20.4135 11.4866C20.7959 12.0589 21 12.7317 21 13.42C21 14.343 20.6334 15.2281 19.9807 15.8807C19.3281 16.5334 18.443 16.9 17.52 16.9" stroke="#D9C8AD" stroke-width="1.5" stroke-linecap="round" stroke-linejoin="round"/>
</svg>
