<svg xmlns="http://www.w3.org/2000/svg" width="38" height="38" viewBox="0 0 38 38"><g><g><path fill="#fff" d="M18.75.505C29.105.505 37.5 8.9 37.5 19.256c0 10.356-8.395 18.751-18.75 18.751S0 29.612 0 19.257C0 8.9 8.395.504 18.75.504z"/></g><g><path fill="#d9c8ad" d="M8.373 17.774l18.17-7.045c.385-.15.783.19.7.596L23.98 27.09a.52.52 0 0 1-.817.317l-4.452-3.248a.733.733 0 0 0-.897.025l-2.468 2.022a.52.52 0 0 1-.828-.25l-1.714-5.54-4.427-1.66a.526.526 0 0 1-.005-.982zm5.49 2.743l.935 3.304c.066.234.404.21.437-.032l.243-1.812a1.49 1.49 0 0 1 .459-.89l7.14-6.672c.134-.124-.026-.335-.181-.24l-8.653 5.357a.877.877 0 0 0-.38.985z"/></g></g></svg>