<svg xmlns="http://www.w3.org/2000/svg" width="38" height="38" viewBox="0 0 38 38"><g><g><path fill="#fff" d="M18.75.505C29.105.505 37.5 8.9 37.5 19.256c0 10.356-8.395 18.751-18.75 18.751S0 29.612 0 19.257C0 8.9 8.395.504 18.75.504z"/></g><g><path fill="#d9c8ad" d="M27.055 18.78c-.002-.064-.005-.124-.005-.176.048-3.899-3.289-7.434-7.14-7.565-.017 0-.032 0-.047.002a.384.384 0 0 1-.046.002c-.038 0-.086-.003-.136-.006-.06-.004-.129-.01-.199-.01-.613 0-.73.442-.745.704-.034.608.547.65.826.671.068.005.132.01.185.018 3.74.582 5.46 2.374 5.937 6.186.008.065.01.144.01.227.005.298.015.918.673.93h.02c.207 0 .371-.062.488-.187.205-.216.19-.538.18-.797zm-7.758-2.798c-.075.217-.066.406.026.561.135.228.393.298.628.336.85.138 1.288.614 1.376 1.498.04.412.315.7.667.7a.679.679 0 0 0 .08-.005c.423-.05.629-.366.61-.936.007-.594-.301-1.27-.825-1.808-.525-.54-1.158-.843-1.734-.83-.218.007-.67.018-.828.484zm.537-1.32c.072.01.139.02.195.032 2.278.515 3.045 1.324 3.42 3.608.009.056.013.124.017.197.017.273.05.841.655.841.05 0 .104-.004.16-.013.562-.086.545-.606.536-.855-.002-.07-.004-.137.002-.18a.254.254 0 0 0 .002-.034c.02-2.43-2.025-4.656-4.56-4.964a3.864 3.864 0 0 1-.164-.025c-.126-.021-.255-.043-.386-.043-.52 0-.659.37-.695.59-.036.213-.002.393.1.534.172.237.475.278.718.312zm-4.169 4.685c-.343-.779-.231-1.288.372-1.703.343-.235.98-.673.936-1.512-.052-.952-2.13-3.817-3.005-4.143-.37-.137-.76-.139-1.16-.003-1.006.342-1.728.943-2.088 1.738-.348.768-.332 1.669.046 2.606 1.092 2.712 2.627 5.075 4.563 7.026 1.895 1.909 4.224 3.473 6.923 4.648a3.8 3.8 0 0 0 .684.206c.064.014.119.026.159.037.022.007.044.01.067.01h.021c1.27 0 2.794-1.173 3.262-2.51.41-1.17-.339-1.75-.94-2.214l-.24-.188c-.408-.333-.842-.639-1.262-.935l-.262-.185c-.538-.382-1.022-.568-1.479-.568-.616 0-1.152.344-1.596 1.023-.196.3-.434.447-.727.447-.174 0-.371-.05-.587-.15-1.737-.796-2.977-2.018-3.687-3.63z"/></g></g></svg>