<svg xmlns="http://www.w3.org/2000/svg" width="38" height="38" viewBox="0 0 38 38"><g><g><path fill="#fff" d="M18.75.505C29.105.505 37.5 8.9 37.5 19.256c0 10.356-8.395 18.751-18.75 18.751S0 29.612 0 19.257C0 8.9 8.395.504 18.75.504z"/></g><g><path fill="#d9c8ad" d="M20.042 27.787a9.271 9.271 0 0 1-4.36-1.088l-4.864 1.547a.244.244 0 0 1-.304-.31l1.581-4.667a9.073 9.073 0 0 1-1.263-4.622c0-5.04 4.132-9.141 9.21-9.141 5.077 0 9.208 4.1 9.208 9.14 0 5.04-4.13 9.14-9.208 9.14zm0-16.377c-4.023 0-7.295 3.246-7.295 7.237 0 1.533.48 3 1.389 4.242.047.064.06.147.034.222l-.787 2.32 2.437-.774a.246.246 0 0 1 .208.029 7.297 7.297 0 0 0 4.014 1.196c4.021 0 7.293-3.246 7.293-7.235 0-3.99-3.272-7.237-7.293-7.237zm2.936 11.602l-.067.006c-.106.01-.226.022-.375.022-.357 0-.984-.061-2.307-.59-1.375-.55-2.732-1.727-3.82-3.316l-.039-.056c-.284-.375-.945-1.36-.945-2.402 0-1.159.554-1.818.882-2.024.31-.195 1.008-.287 1.137-.293l.105-.004c.271 0 .466.164.614.518.061.146.638 1.539.67 1.603.04.078.162.317.019.6l-.03.062c-.06.119-.11.22-.223.352a9.852 9.852 0 0 0-.11.132c-.078.093-.159.19-.233.265a.441.441 0 0 0-.08.094s0 .017.023.054c.152.259 1.265 1.79 2.731 2.427.064.028.276.115.288.115.014 0 .037-.023.053-.042.128-.144.541-.627.678-.83.12-.18.276-.273.46-.273.113 0 .22.035.319.07.243.088 1.61.761 1.646.779.18.086.32.153.403.288.12.199.072.745-.108 1.246-.229.635-1.234 1.156-1.69 1.197z"/></g></g></svg>