<svg xmlns="http://www.w3.org/2000/svg" width="16" height="17" viewBox="0 0 16 17"><g><g><path fill="#717171" d="M15.75 2.32v12.601a1.58 1.58 0 0 1-1.575 1.576h-12.6A1.58 1.58 0 0 1 0 14.92v-12.6A1.58 1.58 0 0 1 1.575.744h12.6A1.58 1.58 0 0 1 15.75 2.32zM4.725 8.62a3.16 3.16 0 0 0 3.15 3.151 3.16 3.16 0 0 0 3.15-3.15 3.16 3.16 0 0 0-3.15-3.15 3.16 3.16 0 0 0-3.15 3.15zm9.056 6.301c.236 0 .394-.157.394-.393V7.834H12.52c.079.236.079.55.079.787a4.74 4.74 0 0 1-4.725 4.725A4.74 4.74 0 0 1 3.15 8.621c0-.236 0-.551.079-.787H1.575v6.694c0 .236.157.393.394.393zm.394-12.206c0-.237-.158-.395-.394-.395h-1.575c-.236 0-.394.158-.394.395v1.574c0 .237.158.394.394.394h1.575c.236 0 .394-.157.394-.394z"/></g></g></svg>