<svg width="14" height="12" viewBox="0 0 14 12" fill="none" xmlns="http://www.w3.org/2000/svg">
<path d="M1.08001 6.31002C1.0256 6.21577 0.996948 6.10885 0.996948 6.00002C0.996948 5.89118 1.0256 5.78427 1.08001 5.69002C2.34001 3.36002 4.67001 1.33002 7.00001 1.33002C9.33001 1.33002 11.66 3.33002 12.92 5.69002C12.9744 5.78427 13.0031 5.89118 13.0031 6.00002C13.0031 6.10885 12.9744 6.21577 12.92 6.31002C11.66 8.64002 9.33001 10.67 7.00001 10.67C4.67001 10.67 2.34001 8.64002 1.08001 6.31002Z" stroke="#323232" stroke-width="1.5" stroke-linecap="round" stroke-linejoin="round"/>
<path d="M7 7.75C7.9665 7.75 8.75 6.9665 8.75 6C8.75 5.0335 7.9665 4.25 7 4.25C6.0335 4.25 5.25 5.0335 5.25 6C5.25 6.9665 6.0335 7.75 7 7.75Z" stroke="#323232" stroke-width="1.5" stroke-linecap="round" stroke-linejoin="round"/>
</svg>
