<svg xmlns="http://www.w3.org/2000/svg" width="18" height="19" viewBox="0 0 18 19"><g><g><path fill="#e0e0e0" d="M17.055 8.62c-.002-.062-.005-.123-.005-.175.048-3.898-3.289-7.432-7.14-7.563-.017 0-.032 0-.047.002a.364.364 0 0 1-.046.002c-.038 0-.086-.003-.136-.006a2.859 2.859 0 0 0-.199-.01c-.613 0-.73.442-.745.704-.034.607.547.65.826.67.068.006.132.01.185.019 3.74.581 5.46 2.373 5.937 6.184.008.065.01.144.01.228.005.297.015.917.673.93h.02c.207 0 .371-.063.488-.187.205-.217.19-.539.18-.797zM9.297 5.825c-.075.217-.066.406.026.561.135.228.393.297.628.336.85.138 1.288.614 1.376 1.497.04.413.315.7.667.7a.7.7 0 0 0 .08-.004c.423-.051.629-.366.61-.936.007-.595-.301-1.27-.825-1.808-.525-.54-1.158-.843-1.734-.83-.218.007-.67.018-.829.484zm.537-1.32c.072.01.139.02.195.032 2.278.515 3.045 1.324 3.42 3.607.009.056.013.125.017.197.017.274.05.841.655.841.05 0 .104-.004.16-.012.562-.087.545-.606.536-.855-.002-.07-.004-.137.001-.181a.253.253 0 0 0 .003-.034c.02-2.428-2.025-4.655-4.56-4.963a4.233 4.233 0 0 1-.164-.024 2.336 2.336 0 0 0-.386-.043c-.52 0-.659.369-.695.589-.036.214-.002.394.1.534.172.237.475.279.718.313zM5.665 9.19c-.343-.78-.231-1.289.372-1.703.343-.236.98-.673.936-1.512-.052-.952-2.13-3.817-3.005-4.142a1.69 1.69 0 0 0-1.16-.003C1.803 2.17 1.08 2.772.72 3.566c-.348.768-.332 1.669.045 2.606 1.092 2.71 2.628 5.074 4.564 7.024 1.895 1.909 4.224 3.472 6.923 4.648.243.105.498.163.684.205.064.014.119.027.159.038.022.006.044.01.067.01h.021c1.27 0 2.794-1.173 3.262-2.51.41-1.17-.339-1.75-.94-2.214a14.34 14.34 0 0 1-.24-.187c-.408-.333-.842-.64-1.262-.936l-.262-.184c-.538-.382-1.022-.568-1.479-.568-.616 0-1.152.344-1.596 1.022-.196.3-.434.447-.727.447-.174 0-.371-.05-.587-.149-1.737-.796-2.977-2.017-3.687-3.63z"/></g></g></svg>