<?xml version="1.0" encoding="utf-8"?>
<!-- Generator: Adobe Illustrator 25.0.0, SVG Export Plug-In . SVG Version: 6.00 Build 0)  -->
<svg version="1.1" id="Слой_1" xmlns="http://www.w3.org/2000/svg" xmlns:xlink="http://www.w3.org/1999/xlink" x="0px" y="0px"
	 viewBox="0 0 20.4 18" style="enable-background:new 0 0 20.4 18;" xml:space="preserve">
<style type="text/css">
	.st0{fill:#7D9E64;}
</style>
<g>
	<g>
		<path class="st0" d="M0.4,7.6l18.2-7c0.4-0.2,0.8,0.2,0.7,0.6L16,17c-0.1,0.3-0.3,0.5-0.6,0.4c-0.1,0-0.1,0-0.2-0.1L10.8,14
			c-0.3-0.2-0.6-0.2-0.9,0l-2.5,2c-0.2,0.2-0.5,0.2-0.7-0.1c0-0.1-0.1-0.1-0.1-0.2l-1.7-5.5L0.4,8.6C0.2,8.5,0,8.2,0.1,7.9
			C0.2,7.8,0.3,7.7,0.4,7.6L0.4,7.6z M5.9,10.4l0.9,3.3c0.1,0.2,0.4,0.2,0.4,0l0.2-1.8c0-0.3,0.2-0.7,0.5-0.9l7.2-6.7
			c0.1-0.1,0-0.3-0.2-0.2L6.3,9.4C6,9.6,5.8,10,5.9,10.4z"/>
	</g>
</g>
</svg>
