<svg xmlns="http://www.w3.org/2000/svg" width="20" height="16" viewBox="0 0 20 16"><g><g><path fill="#717171" d="M17.445 2.62c.849-.519 1.41-1.228 1.686-2.13a9.138 9.138 0 0 1-2.47.902C15.923.601 14.987.2 13.867.2c-1.096 0-2.022.383-2.778 1.128a3.723 3.723 0 0 0-1.13 2.727c0 .324.041.613.123.858C6.85 4.802 4.175 3.466 2.068.895c-.357.63-.536 1.27-.536 1.933 0 1.361.577 2.44 1.729 3.233-.657-.055-1.236-.22-1.729-.491 0 .972.287 1.784.862 2.499A3.804 3.804 0 0 0 4.616 9.42a4.133 4.133 0 0 1-1.029.124c-.328 0-.56-.027-.697-.086a3.699 3.699 0 0 0 1.356 1.927 3.851 3.851 0 0 0 2.26.778c-1.399 1.094-2.999 1.635-4.81 1.635-.442 0-.756-.006-.947-.04 1.783 1.153 3.768 1.726 5.963 1.726 2.248 0 4.234-.568 5.963-1.702 1.727-1.129 3.003-2.521 3.822-4.16A11.254 11.254 0 0 0 17.73 4.5v-.49c.796-.597 1.44-1.27 1.932-2.011a8.556 8.556 0 0 1-2.216.62z"/></g></g></svg>