<svg xmlns="http://www.w3.org/2000/svg" width="19" height="20" viewBox="0 0 19 20"><g><g><path fill="#e0e0e0" d="M9.542 18.626a9.272 9.272 0 0 1-4.36-1.087L.319 19.085a.244.244 0 0 1-.304-.31l1.58-4.665A9.07 9.07 0 0 1 .333 9.488c0-5.04 4.132-9.139 9.21-9.139 5.077 0 9.208 4.1 9.208 9.139s-4.13 9.138-9.208 9.138zm0-16.373c-4.023 0-7.295 3.246-7.295 7.235 0 1.533.48 3 1.389 4.241.047.064.06.147.034.222l-.787 2.32 2.437-.774a.243.243 0 0 1 .207.028 7.298 7.298 0 0 0 4.015 1.197c4.021 0 7.293-3.245 7.293-7.234 0-3.99-3.272-7.235-7.294-7.235zm2.936 11.6l-.067.005c-.106.01-.226.023-.376.023-.356 0-.983-.061-2.306-.59-1.375-.55-2.732-1.727-3.82-3.316L5.87 9.92c-.284-.374-.945-1.359-.945-2.401 0-1.159.554-1.817.882-2.024.309-.195 1.008-.287 1.137-.293l.105-.004c.27 0 .466.164.613.518.062.146.639 1.539.671 1.603.04.078.162.317.019.6l-.03.062c-.06.119-.11.22-.223.352a9.586 9.586 0 0 0-.11.132c-.078.093-.159.19-.233.264-.026.026-.075.075-.08.095 0 0 0 .017.023.054.152.258 1.265 1.79 2.731 2.426.064.028.276.115.288.115.014 0 .037-.023.053-.042.128-.144.541-.627.678-.83.12-.18.276-.273.46-.273.113 0 .22.035.319.07.243.088 1.61.761 1.646.779.18.086.32.154.403.288.12.199.072.745-.108 1.246-.229.635-1.234 1.156-1.691 1.196z"/></g></g></svg>