<svg xmlns="http://www.w3.org/2000/svg" width="16" height="19" viewBox="0 0 16 19"><g><g><path fill="#717171" d="M15.45 17.245c-.098.415-.3.763-.606 1.044a1.813 1.813 0 0 1-1.065.486c-1.28.148-3.211.222-5.793.222-2.582 0-4.513-.074-5.794-.222a1.837 1.837 0 0 1-1.07-.486c-.31-.28-.51-.629-.6-1.044-.181-.788-.272-2.02-.272-3.694 0-1.646.09-2.877.271-3.693.098-.415.3-.764.606-1.045a1.883 1.883 0 0 1 1.075-.496c1.274-.14 3.202-.21 5.784-.21s4.513.07 5.793.21a1.9 1.9 0 0 1 1.07.496c.31.281.51.63.6 1.045.182.788.272 2.02.272 3.693 0 1.647-.09 2.877-.271 3.694zM4.666 9.932H1.41v.992h1.096v6.004H3.55v-6.004h1.117zm2.819 1.783h-.93v3.99c-.208.295-.407.442-.595.442-.125 0-.198-.073-.219-.22a2.981 2.981 0 0 1-.01-.37v-3.842H4.8v4.126c0 .345.029.602.084.77.084.26.286.391.606.391.334 0 .689-.214 1.065-.644v.57h.929zm3.549 1.572c0-.513-.031-.861-.094-1.044-.118-.393-.365-.591-.741-.591-.348 0-.672.19-.971.57v-2.29h-.93v6.996h.93v-.506c.313.387.637.58.97.58.377 0 .624-.193.742-.58.063-.19.094-.542.094-1.055zm3.528 1.837h-.95c0 .359-.007.573-.02.643-.05.254-.189.38-.418.38-.32 0-.48-.242-.48-.728v-.917h1.868v-1.088c0-.556-.094-.964-.282-1.224-.27-.358-.64-.538-1.106-.538-.473 0-.846.18-1.117.538-.195.26-.292.668-.292 1.224v1.826c0 .556.1.963.302 1.224.272.358.648.538 1.128.538.5 0 .877-.186 1.127-.56.126-.19.199-.38.22-.569.013-.063.02-.267.02-.612zm-1.868-1.9c0-.478.156-.717.47-.717.312 0 .47.239.47.718v.485h-.94zm-2.996 2.923c-.16 0-.317-.077-.47-.232v-3.176c.153-.155.31-.232.47-.232.27 0 .407.235.407.706v2.227c0 .472-.136.707-.407.707zm2.014-9.57c-.368.436-.727.653-1.075.653-.32 0-.525-.13-.616-.39-.055-.17-.083-.433-.083-.792V1.89h.95v3.873c0 .232.003.355.01.37.02.155.094.232.22.232.187 0 .386-.152.594-.454v-4.02h.95v5.265h-.95zm-3.946.653c-.466 0-.831-.18-1.096-.538-.195-.267-.292-.682-.292-1.245V3.6c0-.563.098-.974.292-1.235.265-.359.63-.538 1.096-.538.48 0 .85.18 1.107.538.195.26.292.672.292 1.235v1.847c0 .57-.097.984-.292 1.245-.258.359-.626.538-1.107.538zm.45-3.82c0-.486-.15-.729-.45-.729-.299 0-.449.243-.449.73v2.215c0 .492.15.739.45.739.299 0 .448-.247.448-.74zM5.104 7.156H4.06v-2.86c-.098-.52-.31-1.266-.637-2.237A91.246 91.246 0 0 1 2.745.086h1.107l.741 2.775.71-2.775h1.065l-1.263 4.21z"/></g></g></svg>